{
	"asset":{
		"generator":"Khronos glTF Blender I/O v5.0.21",
		"version":"2.0"
	},
	"scene":0,
	"scenes":[
		{
			"name":"Scene",
			"nodes":[
				0
			]
		}
	],
	"nodes":[
		{
			"mesh":0,
			"name":"Mesh_0_Part_0",
			"translation":[
				0,
				0.03714810311794281,
				-0.011583092622458935
			]
		}
	],
	"materials":[
		{
			"name":"default_tex0",
			"pbrMetallicRoughness":{
				"baseColorTexture":{
					"index":0
				},
				"metallicFactor":0
			}
		}
	],
	"meshes":[
		{
			"name":"Mesh_0_Part_0",
			"primitives":[
				{
					"attributes":{
						"POSITION":0,
						"NORMAL":1,
						"TEXCOORD_0":2
					},
					"indices":3,
					"material":0
				}
			]
		}
	],
	"textures":[
		{
			"sampler":0,
			"source":0
		}
	],
	"images":[
		{
			"mimeType":"image/jpeg",
			"name":"tex_u0_v0_diffuse",
			"uri":"tex_u0_v0_diffuse.jpg"
		}
	],
	"accessors":[
		{
			"bufferView":0,
			"componentType":5126,
			"count":299981,
			"max":[
				0.10490798950195312,
				0.07760810852050781,
				0.137725830078125
			],
			"min":[
				-0.11691665649414062,
				-0.036960601806640625,
				-0.1134033203125
			],
			"type":"VEC3"
		},
		{
			"bufferView":1,
			"componentType":5126,
			"count":299981,
			"type":"VEC3"
		},
		{
			"bufferView":2,
			"componentType":5126,
			"count":299981,
			"type":"VEC2"
		},
		{
			"bufferView":3,
			"componentType":5125,
			"count":299988,
			"type":"SCALAR"
		}
	],
	"bufferViews":[
		{
			"buffer":0,
			"byteLength":3599772,
			"byteOffset":0,
			"target":34962
		},
		{
			"buffer":0,
			"byteLength":3599772,
			"byteOffset":3599772,
			"target":34962
		},
		{
			"buffer":0,
			"byteLength":2399848,
			"byteOffset":7199544,
			"target":34962
		},
		{
			"buffer":0,
			"byteLength":1199952,
			"byteOffset":9599392,
			"target":34963
		}
	],
	"samplers":[
		{
			"magFilter":9729,
			"minFilter":9987,
			"wrapS":33071,
			"wrapT":33071
		}
	],
	"buffers":[
		{
			"byteLength":10799344,
			"uri":"CalculatorAndCoffee.bin"
		}
	]
}
