{
	"asset":{
		"generator":"Khronos glTF Blender I/O v5.0.21",
		"version":"2.0"
	},
	"scene":0,
	"scenes":[
		{
			"name":"Scene",
			"nodes":[
				0,
				1,
				2,
				3,
				4,
				5,
				6,
				7
			]
		}
	],
	"nodes":[
		{
			"mesh":0,
			"name":"Cylinder",
			"scale":[
				2.67219614982605,
				0.3236663043498993,
				2.67219614982605
			]
		},
		{
			"mesh":1,
			"name":"Cylinder.001",
			"scale":[
				1.2279682159423828,
				0.5682049989700317,
				1.2279682159423828
			]
		},
		{
			"mesh":2,
			"name":"Cylinder.002",
			"scale":[
				1.2279682159423828,
				0.5682049989700317,
				1.2279682159423828
			]
		},
		{
			"mesh":3,
			"name":"Cylinder.003",
			"rotation":[
				0,
				-0.8660253882408142,
				0,
				0.4999999701976776
			],
			"scale":[
				1.2279682159423828,
				0.5682049989700317,
				1.2279682159423828
			]
		},
		{
			"mesh":4,
			"name":"Cylinder.004",
			"rotation":[
				0,
				0.8660253882408142,
				0,
				0.5000000596046448
			],
			"scale":[
				1.2279682159423828,
				0.5682049989700317,
				1.2279682159423828
			]
		},
		{
			"name":"Empty"
		},
		{
			"name":"Empty.001",
			"rotation":[
				0,
				-0.8660253882408142,
				0,
				0.4999999701976776
			]
		},
		{
			"name":"Empty.002",
			"rotation":[
				0,
				0.8660253882408142,
				0,
				0.4999999701976776
			]
		}
	],
	"materials":[
		{
			"doubleSided":true,
			"name":"Material.001",
			"pbrMetallicRoughness":{
				"baseColorFactor":[
					0.035657450556755066,
					0.002853102283552289,
					0.059848204255104065,
					1
				],
				"metallicFactor":0,
				"roughnessFactor":0.5
			}
		},
		{
			"doubleSided":true,
			"name":"Material.002",
			"pbrMetallicRoughness":{
				"metallicFactor":0,
				"roughnessFactor":0.5
			}
		}
	],
	"meshes":[
		{
			"name":"Cylinder",
			"primitives":[
				{
					"attributes":{
						"POSITION":0,
						"NORMAL":1,
						"TEXCOORD_0":2
					},
					"indices":3,
					"material":0
				}
			]
		},
		{
			"name":"Cylinder.001",
			"primitives":[
				{
					"attributes":{
						"POSITION":4,
						"NORMAL":5,
						"TEXCOORD_0":6
					},
					"indices":7,
					"material":1
				}
			]
		},
		{
			"name":"Cylinder.002",
			"primitives":[
				{
					"attributes":{
						"POSITION":8,
						"NORMAL":9,
						"TEXCOORD_0":10
					},
					"indices":7,
					"material":1
				}
			]
		},
		{
			"name":"Cylinder.003",
			"primitives":[
				{
					"attributes":{
						"POSITION":11,
						"NORMAL":12,
						"TEXCOORD_0":13
					},
					"indices":7,
					"material":1
				}
			]
		},
		{
			"name":"Cylinder.004",
			"primitives":[
				{
					"attributes":{
						"POSITION":14,
						"NORMAL":15,
						"TEXCOORD_0":16
					},
					"indices":7,
					"material":1
				}
			]
		}
	],
	"accessors":[
		{
			"bufferView":0,
			"componentType":5126,
			"count":130,
			"max":[
				1,
				1,
				1
			],
			"min":[
				-1,
				-1,
				-1
			],
			"type":"VEC3"
		},
		{
			"bufferView":1,
			"componentType":5126,
			"count":130,
			"type":"VEC3"
		},
		{
			"bufferView":2,
			"componentType":5126,
			"count":130,
			"type":"VEC2"
		},
		{
			"bufferView":3,
			"componentType":5123,
			"count":372,
			"type":"SCALAR"
		},
		{
			"bufferView":4,
			"componentType":5126,
			"count":226,
			"max":[
				1,
				1,
				1
			],
			"min":[
				-1,
				-1.0034730434417725,
				-1
			],
			"type":"VEC3"
		},
		{
			"bufferView":5,
			"componentType":5126,
			"count":226,
			"type":"VEC3"
		},
		{
			"bufferView":6,
			"componentType":5126,
			"count":226,
			"type":"VEC2"
		},
		{
			"bufferView":7,
			"componentType":5123,
			"count":768,
			"type":"SCALAR"
		},
		{
			"bufferView":8,
			"componentType":5126,
			"count":226,
			"max":[
				2.34439754486084,
				1,
				1
			],
			"min":[
				0.3443976640701294,
				-1.0034730434417725,
				-1
			],
			"type":"VEC3"
		},
		{
			"bufferView":9,
			"componentType":5126,
			"count":226,
			"type":"VEC3"
		},
		{
			"bufferView":10,
			"componentType":5126,
			"count":226,
			"type":"VEC2"
		},
		{
			"bufferView":11,
			"componentType":5126,
			"count":226,
			"max":[
				2.34439754486084,
				1,
				1
			],
			"min":[
				0.3443976640701294,
				-1.0034730434417725,
				-1
			],
			"type":"VEC3"
		},
		{
			"bufferView":12,
			"componentType":5126,
			"count":226,
			"type":"VEC3"
		},
		{
			"bufferView":13,
			"componentType":5126,
			"count":226,
			"type":"VEC2"
		},
		{
			"bufferView":14,
			"componentType":5126,
			"count":226,
			"max":[
				2.34439754486084,
				1,
				1
			],
			"min":[
				0.3443976640701294,
				-1.0034730434417725,
				-1
			],
			"type":"VEC3"
		},
		{
			"bufferView":15,
			"componentType":5126,
			"count":226,
			"type":"VEC3"
		},
		{
			"bufferView":16,
			"componentType":5126,
			"count":226,
			"type":"VEC2"
		}
	],
	"bufferViews":[
		{
			"buffer":0,
			"byteLength":1560,
			"byteOffset":0,
			"target":34962
		},
		{
			"buffer":0,
			"byteLength":1560,
			"byteOffset":1560,
			"target":34962
		},
		{
			"buffer":0,
			"byteLength":1040,
			"byteOffset":3120,
			"target":34962
		},
		{
			"buffer":0,
			"byteLength":744,
			"byteOffset":4160,
			"target":34963
		},
		{
			"buffer":0,
			"byteLength":2712,
			"byteOffset":4904,
			"target":34962
		},
		{
			"buffer":0,
			"byteLength":2712,
			"byteOffset":7616,
			"target":34962
		},
		{
			"buffer":0,
			"byteLength":1808,
			"byteOffset":10328,
			"target":34962
		},
		{
			"buffer":0,
			"byteLength":1536,
			"byteOffset":12136,
			"target":34963
		},
		{
			"buffer":0,
			"byteLength":2712,
			"byteOffset":13672,
			"target":34962
		},
		{
			"buffer":0,
			"byteLength":2712,
			"byteOffset":16384,
			"target":34962
		},
		{
			"buffer":0,
			"byteLength":1808,
			"byteOffset":19096,
			"target":34962
		},
		{
			"buffer":0,
			"byteLength":2712,
			"byteOffset":20904,
			"target":34962
		},
		{
			"buffer":0,
			"byteLength":2712,
			"byteOffset":23616,
			"target":34962
		},
		{
			"buffer":0,
			"byteLength":1808,
			"byteOffset":26328,
			"target":34962
		},
		{
			"buffer":0,
			"byteLength":2712,
			"byteOffset":28136,
			"target":34962
		},
		{
			"buffer":0,
			"byteLength":2712,
			"byteOffset":30848,
			"target":34962
		},
		{
			"buffer":0,
			"byteLength":1808,
			"byteOffset":33560,
			"target":34962
		}
	],
	"buffers":[
		{
			"byteLength":35368,
			"uri":"imr.bin"
		}
	]
}
